<svg xmlns="http://www.w3.org/2000/svg" width="19" height="19" viewBox="0 0 19 19">
  <path id="Path_777" data-name="Path 777" d="M15.84,21a1.9,1.9,0,0,0,1.358-.56l2.574-2.574a.95.95,0,0,0,0-1.339l-3.8-3.8a.95.95,0,0,0-1.339,0l-1.52,1.51a7.172,7.172,0,0,1-2.85-1.51,7.238,7.238,0,0,1-1.51-2.85l1.51-1.52a.95.95,0,0,0,0-1.339l-3.8-3.8a.95.95,0,0,0-1.339,0L2.56,5.8A1.9,1.9,0,0,0,2,7.158a14.515,14.515,0,0,0,4.085,9.756A14.515,14.515,0,0,0,15.84,21ZM5.8,5.239,8.26,7.7,7.034,8.925a.95.95,0,0,0-.285.864,9.613,9.613,0,0,0,2.185,4.275,9.575,9.575,0,0,0,4.275,2.185.95.95,0,0,0,.864-.256L15.3,14.738l2.46,2.46-1.9,1.9a12.615,12.615,0,0,1-8.426-3.524A12.615,12.615,0,0,1,3.9,7.139Zm13.3,5.31H21A8.369,8.369,0,0,0,12.449,2V3.9A6.431,6.431,0,0,1,19.1,10.549Z" transform="translate(-2 -1.998)" fill="#4a5a51"/>
</svg>
